# MagicaVoxel @ Ephtracy

# group
o 

# material
mtllib Road1.mtl
usemtl palette

# normals
vn -1 0 0
vn 1 0 0
vn 0 0 1
vn 0 0 -1
vn 0 -1 0
vn 0 1 0

# texcoords
vt 0.201172 0.5
vt 0.306641 0.5
vt 0.865234 0.5

# verts
v -1.4 0 2
v -1.4 0 -10
v -1.4 3 2
v -1.4 3 1
v -1.4 3.3 1
v -1.4 3.3 0.3
v -1.4 3.5 -9.7
v -1.4 3.5 -10
v -1.4 3.6 0.3
v -1.4 3.6 -0.7
v -1.4 3.6 -8.6
v -1.4 3.6 -9.7
v -1.4 3.7 -7.5
v -1.4 3.7 -8.6
v -1.4 3.8 -0.7
v -1.4 3.8 -1.9
v -1.4 3.8 -6.3
v -1.4 3.8 -7.5
v -1.4 3.9 -1.9
v -1.4 3.9 -3.6
v -1.4 4 -3.6
v -1.4 4 -6.3
v -1.3 3.5 -9.9
v -1.3 3.5 -10
v -1.3 3.6 -9.9
v -1.3 3.6 -10
v 1.3 3.5 -9.9
v 1.3 3.5 -10
v 1.3 3.6 -9.9
v 1.3 3.6 -10
v 1.4 0 2
v 1.4 0 -10
v 1.4 3 2
v 1.4 3 1
v 1.4 3.3 1
v 1.4 3.3 0.3
v 1.4 3.5 -9.7
v 1.4 3.5 -10
v 1.4 3.6 0.3
v 1.4 3.6 -0.7
v 1.4 3.6 -8.6
v 1.4 3.6 -9.7
v 1.4 3.7 -7.5
v 1.4 3.7 -8.6
v 1.4 3.8 -0.7
v 1.4 3.8 -1.9
v 1.4 3.8 -6.3
v 1.4 3.8 -7.5
v 1.4 3.9 -1.9
v 1.4 3.9 -3.6
v 1.4 4 -3.6
v 1.4 4 -6.3
v -1.4 0 2
v -1.4 3 2
v 1.4 0 2
v 1.4 3 2
v -1.4 3 1
v -1.4 3.3 1
v -1.3 3 1
v -1.3 3.3 1
v 1.3 3 1
v 1.3 3.3 1
v 1.4 3 1
v 1.4 3.3 1
v -1.4 3.3 0.3
v -1.4 3.6 0.3
v -1.3 3.3 0.3
v -1.3 3.6 0.3
v 1.3 3.3 0.3
v 1.3 3.6 0.3
v 1.4 3.3 0.3
v 1.4 3.6 0.3
v -1.4 3.6 -0.7
v -1.4 3.8 -0.7
v -1.3 3.6 -0.7
v -1.3 3.8 -0.7
v 1.3 3.6 -0.7
v 1.3 3.8 -0.7
v 1.4 3.6 -0.7
v 1.4 3.8 -0.7
v -1.4 3.8 -1.9
v -1.4 3.9 -1.9
v -1.3 3.8 -1.9
v -1.3 3.9 -1.9
v 1.3 3.8 -1.9
v 1.3 3.9 -1.9
v 1.4 3.8 -1.9
v 1.4 3.9 -1.9
v -1.4 3.9 -3.6
v -1.4 4 -3.6
v -1.3 3.9 -3.6
v -1.3 4 -3.6
v 1.3 3.9 -3.6
v 1.3 4 -3.6
v 1.4 3.9 -3.6
v 1.4 4 -3.6
v -1.3 3.5 -9.9
v -1.3 3.6 -9.9
v 1.3 3.5 -9.9
v 1.3 3.6 -9.9
v -1.4 3.8 -6.3
v -1.4 4 -6.3
v -1.3 3.8 -6.3
v -1.3 3.9 -6.3
v -1.3 4 -6.3
v 1.3 3.8 -6.3
v 1.3 3.9 -6.3
v 1.3 4 -6.3
v 1.4 3.8 -6.3
v 1.4 4 -6.3
v -1.4 3.7 -7.5
v -1.4 3.8 -7.5
v -1.3 3.7 -7.5
v -1.3 3.8 -7.5
v 1.3 3.7 -7.5
v 1.3 3.8 -7.5
v 1.4 3.7 -7.5
v 1.4 3.8 -7.5
v -1.4 3.6 -8.6
v -1.4 3.7 -8.6
v -1.3 3.6 -8.6
v -1.3 3.7 -8.6
v 1.3 3.6 -8.6
v 1.3 3.7 -8.6
v 1.4 3.6 -8.6
v 1.4 3.7 -8.6
v -1.4 3.5 -9.7
v -1.4 3.6 -9.7
v -1.3 3.5 -9.7
v -1.3 3.6 -9.7
v 1.3 3.5 -9.7
v 1.3 3.6 -9.7
v 1.4 3.5 -9.7
v 1.4 3.6 -9.7
v -1.4 0 -10
v -1.4 3.5 -10
v -1.3 3.5 -10
v -1.3 3.6 -10
v 1.3 3.5 -10
v 1.3 3.6 -10
v 1.4 0 -10
v 1.4 3.5 -10
v -1.4 0 2
v 1.4 0 2
v -1.3 0 1.9
v 1.3 0 1.9
v -1.3 0 -9.9
v 1.3 0 -9.9
v -1.4 0 -10
v 1.4 0 -10
v -1.4 3 2
v 1.4 3 2
v -1.3 3 1.9
v 1.3 3 1.9
v -1.4 3 1
v -1.3 3 1
v 1.3 3 1
v 1.4 3 1
v -1.4 3.3 1
v -1.3 3.3 1
v 1.3 3.3 1
v 1.4 3.3 1
v -1.4 3.3 0.3
v -1.3 3.3 0.3
v 1.3 3.3 0.3
v 1.4 3.3 0.3
v -1.4 3.5 -9.7
v -1.3 3.5 -9.7
v 1.3 3.5 -9.7
v 1.4 3.5 -9.7
v -1.3 3.5 -9.9
v 1.3 3.5 -9.9
v -1.4 3.5 -10
v -1.3 3.5 -10
v 1.3 3.5 -10
v 1.4 3.5 -10
v -1.4 3.6 0.3
v -1.3 3.6 0.3
v 1.3 3.6 0.3
v 1.4 3.6 0.3
v -1.4 3.6 -0.7
v -1.3 3.6 -0.7
v 1.3 3.6 -0.7
v 1.4 3.6 -0.7
v -1.4 3.6 -8.6
v -1.3 3.6 -8.6
v 1.3 3.6 -8.6
v 1.4 3.6 -8.6
v -1.4 3.6 -9.7
v -1.3 3.6 -9.7
v 1.3 3.6 -9.7
v 1.4 3.6 -9.7
v -1.3 3.6 -9.9
v 1.3 3.6 -9.9
v -1.3 3.6 -10
v 1.3 3.6 -10
v -1.4 3.7 -7.5
v -1.3 3.7 -7.5
v 1.3 3.7 -7.5
v 1.4 3.7 -7.5
v -1.4 3.7 -8.6
v -1.3 3.7 -8.6
v 1.3 3.7 -8.6
v 1.4 3.7 -8.6
v -1.4 3.8 -0.7
v -1.3 3.8 -0.7
v 1.3 3.8 -0.7
v 1.4 3.8 -0.7
v -1.4 3.8 -1.9
v -1.3 3.8 -1.9
v 1.3 3.8 -1.9
v 1.4 3.8 -1.9
v -1.4 3.8 -6.3
v -1.3 3.8 -6.3
v 1.3 3.8 -6.3
v 1.4 3.8 -6.3
v -1.4 3.8 -7.5
v -1.3 3.8 -7.5
v 1.3 3.8 -7.5
v 1.4 3.8 -7.5
v -1.4 3.9 -1.9
v -1.3 3.9 -1.9
v 1.3 3.9 -1.9
v 1.4 3.9 -1.9
v -1.4 3.9 -3.6
v -1.3 3.9 -3.6
v 1.3 3.9 -3.6
v 1.4 3.9 -3.6
v -1.4 4 -3.6
v -1.3 4 -3.6
v 1.3 4 -3.6
v 1.4 4 -3.6
v -1.4 4 -6.3
v -1.3 4 -6.3
v 1.3 4 -6.3
v 1.4 4 -6.3

# faces
f 3/3/1 2/3/1 1/3/1
f 4/3/1 2/3/1 3/3/1
f 5/3/1 2/3/1 4/3/1
f 6/3/1 2/3/1 5/3/1
f 7/3/1 2/3/1 6/3/1
f 8/3/1 2/3/1 7/3/1
f 9/3/1 7/3/1 6/3/1
f 10/3/1 7/3/1 9/3/1
f 11/3/1 7/3/1 10/3/1
f 12/3/1 7/3/1 11/3/1
f 13/3/1 11/3/1 10/3/1
f 14/3/1 11/3/1 13/3/1
f 15/3/1 13/3/1 10/3/1
f 16/3/1 13/3/1 15/3/1
f 17/3/1 13/3/1 16/3/1
f 18/3/1 13/3/1 17/3/1
f 19/3/1 17/3/1 16/3/1
f 20/3/1 17/3/1 19/3/1
f 21/3/1 17/3/1 20/3/1
f 22/3/1 17/3/1 21/3/1
f 25/3/1 24/3/1 23/3/1
f 26/3/1 24/3/1 25/3/1
f 27/3/2 28/3/2 29/3/2
f 29/3/2 28/3/2 30/3/2
f 31/3/2 32/3/2 33/3/2
f 33/3/2 32/3/2 34/3/2
f 34/3/2 32/3/2 35/3/2
f 35/3/2 32/3/2 36/3/2
f 36/3/2 32/3/2 37/3/2
f 37/3/2 32/3/2 38/3/2
f 36/3/2 37/3/2 39/3/2
f 39/3/2 37/3/2 40/3/2
f 40/3/2 37/3/2 41/3/2
f 41/3/2 37/3/2 42/3/2
f 40/3/2 41/3/2 43/3/2
f 43/3/2 41/3/2 44/3/2
f 40/3/2 43/3/2 45/3/2
f 45/3/2 43/3/2 46/3/2
f 46/3/2 43/3/2 47/3/2
f 47/3/2 43/3/2 48/3/2
f 46/3/2 47/3/2 49/3/2
f 49/3/2 47/3/2 50/3/2
f 50/3/2 47/3/2 51/3/2
f 51/3/2 47/3/2 52/3/2
f 55/3/3 54/3/3 53/3/3
f 56/3/3 54/3/3 55/3/3
f 59/3/3 58/3/3 57/3/3
f 60/3/3 58/3/3 59/3/3
f 61/2/3 60/2/3 59/2/3
f 62/2/3 60/2/3 61/2/3
f 63/3/3 62/3/3 61/3/3
f 64/3/3 62/3/3 63/3/3
f 67/3/3 66/3/3 65/3/3
f 68/3/3 66/3/3 67/3/3
f 69/2/3 68/2/3 67/2/3
f 70/2/3 68/2/3 69/2/3
f 71/3/3 70/3/3 69/3/3
f 72/3/3 70/3/3 71/3/3
f 75/3/3 74/3/3 73/3/3
f 76/3/3 74/3/3 75/3/3
f 77/2/3 76/2/3 75/2/3
f 78/2/3 76/2/3 77/2/3
f 79/3/3 78/3/3 77/3/3
f 80/3/3 78/3/3 79/3/3
f 83/3/3 82/3/3 81/3/3
f 84/3/3 82/3/3 83/3/3
f 85/2/3 84/2/3 83/2/3
f 86/2/3 84/2/3 85/2/3
f 87/3/3 86/3/3 85/3/3
f 88/3/3 86/3/3 87/3/3
f 91/3/3 90/3/3 89/3/3
f 92/3/3 90/3/3 91/3/3
f 93/1/3 92/1/3 91/1/3
f 94/1/3 92/1/3 93/1/3
f 95/3/3 94/3/3 93/3/3
f 96/3/3 94/3/3 95/3/3
f 99/3/3 98/3/3 97/3/3
f 100/3/3 98/3/3 99/3/3
f 101/3/4 102/3/4 103/3/4
f 103/3/4 102/3/4 104/3/4
f 104/3/4 102/3/4 105/3/4
f 103/2/4 104/2/4 106/2/4
f 104/1/4 105/1/4 107/1/4
f 106/2/4 104/2/4 107/2/4
f 107/1/4 105/1/4 108/1/4
f 106/3/4 107/3/4 109/3/4
f 107/3/4 108/3/4 109/3/4
f 109/3/4 108/3/4 110/3/4
f 111/3/4 112/3/4 113/3/4
f 113/3/4 112/3/4 114/3/4
f 113/2/4 114/2/4 115/2/4
f 115/2/4 114/2/4 116/2/4
f 115/3/4 116/3/4 117/3/4
f 117/3/4 116/3/4 118/3/4
f 119/3/4 120/3/4 121/3/4
f 121/3/4 120/3/4 122/3/4
f 121/2/4 122/2/4 123/2/4
f 123/2/4 122/2/4 124/2/4
f 123/3/4 124/3/4 125/3/4
f 125/3/4 124/3/4 126/3/4
f 127/3/4 128/3/4 129/3/4
f 129/3/4 128/3/4 130/3/4
f 129/2/4 130/2/4 131/2/4
f 131/2/4 130/2/4 132/2/4
f 131/3/4 132/3/4 133/3/4
f 133/3/4 132/3/4 134/3/4
f 135/3/4 136/3/4 137/3/4
f 135/3/4 137/3/4 139/3/4
f 137/3/4 138/3/4 139/3/4
f 139/3/4 138/3/4 140/3/4
f 135/3/4 139/3/4 141/3/4
f 141/3/4 139/3/4 142/3/4
f 145/3/5 144/3/5 143/3/5
f 146/3/5 144/3/5 145/3/5
f 147/3/5 145/3/5 143/3/5
f 147/2/5 146/2/5 145/2/5
f 148/3/5 144/3/5 146/3/5
f 148/2/5 146/2/5 147/2/5
f 149/3/5 147/3/5 143/3/5
f 149/3/5 148/3/5 147/3/5
f 150/3/5 144/3/5 148/3/5
f 150/3/5 148/3/5 149/3/5
f 151/3/6 152/3/6 153/3/6
f 153/3/6 152/3/6 154/3/6
f 151/3/6 153/3/6 155/3/6
f 153/2/6 154/2/6 156/2/6
f 155/3/6 153/3/6 156/3/6
f 154/3/6 152/3/6 157/3/6
f 156/2/6 154/2/6 157/2/6
f 157/3/6 152/3/6 158/3/6
f 159/3/6 160/3/6 163/3/6
f 160/2/6 161/2/6 164/2/6
f 163/3/6 160/3/6 164/3/6
f 161/3/6 162/3/6 165/3/6
f 164/2/6 161/2/6 165/2/6
f 165/3/6 162/3/6 166/3/6
f 167/3/6 168/3/6 171/3/6
f 168/2/6 169/2/6 171/2/6
f 169/3/6 170/3/6 172/3/6
f 171/2/6 169/2/6 172/2/6
f 167/3/6 171/3/6 173/3/6
f 173/3/6 171/3/6 174/3/6
f 172/3/6 170/3/6 175/3/6
f 175/3/6 170/3/6 176/3/6
f 177/3/6 178/3/6 181/3/6
f 178/2/6 179/2/6 182/2/6
f 181/3/6 178/3/6 182/3/6
f 179/3/6 180/3/6 183/3/6
f 182/2/6 179/2/6 183/2/6
f 183/3/6 180/3/6 184/3/6
f 185/3/6 186/3/6 189/3/6
f 186/2/6 187/2/6 190/2/6
f 189/3/6 186/3/6 190/3/6
f 187/3/6 188/3/6 191/3/6
f 190/2/6 187/2/6 191/2/6
f 191/3/6 188/3/6 192/3/6
f 193/3/6 194/3/6 195/3/6
f 195/3/6 194/3/6 196/3/6
f 197/3/6 198/3/6 201/3/6
f 198/2/6 199/2/6 202/2/6
f 201/3/6 198/3/6 202/3/6
f 199/3/6 200/3/6 203/3/6
f 202/2/6 199/2/6 203/2/6
f 203/3/6 200/3/6 204/3/6
f 205/3/6 206/3/6 209/3/6
f 206/2/6 207/2/6 210/2/6
f 209/3/6 206/3/6 210/3/6
f 207/3/6 208/3/6 211/3/6
f 210/2/6 207/2/6 211/2/6
f 211/3/6 208/3/6 212/3/6
f 213/3/6 214/3/6 217/3/6
f 214/2/6 215/2/6 218/2/6
f 217/3/6 214/3/6 218/3/6
f 215/3/6 216/3/6 219/3/6
f 218/2/6 215/2/6 219/2/6
f 219/3/6 216/3/6 220/3/6
f 221/3/6 222/3/6 225/3/6
f 222/2/6 223/2/6 226/2/6
f 225/3/6 222/3/6 226/3/6
f 223/3/6 224/3/6 227/3/6
f 226/2/6 223/2/6 227/2/6
f 227/3/6 224/3/6 228/3/6
f 229/3/6 230/3/6 233/3/6
f 230/1/6 231/1/6 234/1/6
f 233/3/6 230/3/6 234/3/6
f 231/3/6 232/3/6 235/3/6
f 234/1/6 231/1/6 235/1/6
f 235/3/6 232/3/6 236/3/6
